HIERARCHY
ROOT root
{
	OFFSET	0	13.1	24.9
	CHANNELS 6  Xposition Yposition Zposition Xrotation Yrotation Zrotation
	JOINT spine_1
	{
		OFFSET	0	9.99999	0
		CHANNELS 3  Xrotation Yrotation Zrotation
		JOINT spine_2
		{
			OFFSET	0	112	-10
			CHANNELS 3  Xrotation Yrotation Zrotation
			JOINT spine_3
			{
				OFFSET	0	206.5	19.3
				CHANNELS 3  Xrotation Yrotation Zrotation
				JOINT spine_4
				{
					OFFSET	0	110.4	14.6
					CHANNELS 3  Xrotation Yrotation Zrotation
					JOINT neck_1
					{
						OFFSET	0	71.8	-50.3
						CHANNELS 3  Xrotation Yrotation Zrotation
						JOINT neck_2
						{
							OFFSET	0	86.2	-25.8
							CHANNELS 3  Xrotation Yrotation Zrotation
							JOINT head_ee
							{
								OFFSET	0	179.8	-8.7
								CHANNELS 3  Xrotation Yrotation Zrotation
								End Site
								{
									OFFSET	1	0	0
								}
							}
						}
					}
					JOINT left_clavicle
					{
						OFFSET	-43.2	22.4	-70.8
						CHANNELS 3  Xrotation Yrotation Zrotation
						JOINT left_shoulder
						{
							OFFSET	-93.9	-5.79999	48.7
							CHANNELS 3  Xrotation Yrotation Zrotation
							JOINT left_elbow
							{
								OFFSET	-291.4	-30.8	15.2
								CHANNELS 3  Xrotation Yrotation Zrotation
								JOINT left_lowarm_twist
								{
									OFFSET	-110.7	-3.89999	13.6
									CHANNELS 3  Xrotation Yrotation Zrotation
									JOINT left_hand
									{
										OFFSET	-110.7	-3.89999	13.6
										CHANNELS 3  Xrotation Yrotation Zrotation
										JOINT left_ee
										{
											OFFSET	-80.8	-5.10001	12.1
											CHANNELS 3  Xrotation Yrotation Zrotation
											End Site
											{
												OFFSET	1	0	0
											}
										}
									}
								}
							}
						}
					}
					JOINT right_clavicle
					{
						OFFSET	43.2	22.4	-70.8
						CHANNELS 3  Xrotation Yrotation Zrotation
						JOINT right_shoulder
						{
							OFFSET	93.9	-5.79999	48.7
							CHANNELS 3  Xrotation Yrotation Zrotation
							JOINT right_elbow
							{
								OFFSET	291.4	-30.8	15.2
								CHANNELS 3  Xrotation Yrotation Zrotation
								JOINT right_lowarm_twist
								{
									OFFSET	110.7	-3.89999	13.6
									CHANNELS 3  Xrotation Yrotation Zrotation
									JOINT right_hand
									{
										OFFSET	110.7	-3.89999	13.6
										CHANNELS 3  Xrotation Yrotation Zrotation
										JOINT right_ee
										{
											OFFSET	80.8	-5.10001	12.1
											CHANNELS 3  Xrotation Yrotation Zrotation
											End Site
											{
												OFFSET	1	0	0
											}
										}
									}
								}
							}
						}
					}
				}
			}
		}
	}
	JOINT left_hip
	{
		OFFSET	-82.8	-127.5	0.300001
		CHANNELS 3  Xrotation Yrotation Zrotation
		JOINT left_knee
		{
			OFFSET	-28.2	-396.7	2.2
			CHANNELS 3  Xrotation Yrotation Zrotation
			JOINT left_ankle
			{
				OFFSET	-11.7	-411.3	35.4
				CHANNELS 3  Xrotation Yrotation Zrotation
				JOINT left_toes
				{
					OFFSET	0	-60	-88.6
					CHANNELS 3  Xrotation Yrotation Zrotation
					JOINT left_foot_ee
					{
						OFFSET	-22.5	-16.5	-42.2
						CHANNELS 3  Xrotation Yrotation Zrotation
						End Site
						{
							OFFSET	1	0	0
						}
					}
				}
			}
		}
	}
	JOINT right_hip
	{
		OFFSET	82.8	-127.5	0.300001
		CHANNELS 3  Xrotation Yrotation Zrotation
		JOINT right_knee
		{
			OFFSET	28.2	-396.7	2.2
			CHANNELS 3  Xrotation Yrotation Zrotation
			JOINT right_ankle
			{
				OFFSET	11.7	-411.3	35.4
				CHANNELS 3  Xrotation Yrotation Zrotation
				JOINT right_toes
				{
					OFFSET	0	-60	-88.6
					CHANNELS 3  Xrotation Yrotation Zrotation
					JOINT right_foot_ee
					{
						OFFSET	22.5	-16.5	-42.2
						CHANNELS 3  Xrotation Yrotation Zrotation
						End Site
						{
							OFFSET	1	0	0
						}
					}
				}
			}
		}
	}
}
MOTION
Frames: 11
Frame Time: 0.02
1202.04433513 731.247 -1800.78889365 13.4008511155 25.3647375581 -5.30228880657 -5.28692 0.330646 1.32454 -5.28598 0.2457 1.34289 -5.27814 -0.167384 1.35488 -5.2807 0.0486732 1.36431 -1.27895 7.92931 -0.558488 -1.14341 14.7066 0.364229 -0.0 0.0 -0.0 7.75269 10.1263 14.7253 -22.8394 -9.08352 53.5469 1.03464 -27.1358 0.249698 -21.2211 -1.20942 2.41345 -0.971972 3.69546 -4.8713 -0.0 0.0 -0.0 11.0609 9.86317 -22.1729 -16.1486 51.5891 -42.9494 0.910645 24.2801 -0.195895 2.43686 -0.0794629 0.30108 -4.12025 -26.9704 12.2082 0.0 0.0 0.0 4.26008 -13.8795 -0.902676 -48.1732 -1.06682 7.10202 32.645 27.0619 -4.46479 33.1048 -0.0 -0.0 -0.0 0.0 -0.0 9.01309 32.9191 -15.8923 -28.4721 -0.0995481 -4.32353 30.8616 -23.1179 4.16178 -18.9053 0.0 0.0 0.0 0.0 0.0 
1201.15059739 733.484 -1812.25937483 13.7732467139 23.9922012794 -4.94722559752 -5.32897 0.323481 1.10006 -5.32833 0.252831 1.11841 -5.3219 -0.0942721 1.14274 -5.32371 0.087374 1.14329 -0.819079 7.82293 -1.60215 -0.64455 15.3152 -0.815906 -0.0 0.0 -0.0 7.77157 10.2966 14.7491 -23.8942 -8.69923 55.6334 0.983881 -25.9834 0.227002 -20.6315 -1.16405 2.35308 -1.19476 5.5141 -5.5315 -0.0 0.0 -0.0 11.2314 9.88731 -22.5522 -15.1249 51.9932 -41.2645 0.883042 23.6259 -0.184689 2.85296 -0.0917473 0.352812 -4.00887 -26.189 12.076 0.0 0.0 0.0 8.50039 -14.7998 -1.97299 -49.2228 -1.15516 7.23734 31.2399 26.5122 -4.28936 33.5627 -0.0 -0.0 -0.0 0.0 -0.0 7.72799 32.9404 -15.6869 -28.2329 -0.107683 -4.28772 31.3265 -22.4279 4.19871 -19.9933 0.0 0.0 0.0 0.0 0.0 
1201.27361035 733.484 -1812.32172165 13.7710323033 23.9718925003 -4.94177742788 -5.32897 0.323481 1.10006 -5.32833 0.252831 1.11841 -5.3219 -0.0942721 1.14274 -5.32371 0.087374 1.14329 -0.819079 7.82293 -1.60215 -0.64455 15.3152 -0.815906 -0.0 0.0 -0.0 7.77157 10.2966 14.7491 -23.8942 -8.69923 55.6334 0.983881 -25.9834 0.227002 -20.6315 -1.16405 2.35308 -1.19476 5.5141 -5.5315 -0.0 0.0 -0.0 11.2314 9.88731 -22.5522 -15.1249 51.9932 -41.2645 0.883042 23.6259 -0.184689 2.85296 -0.0917473 0.352812 -4.00887 -26.189 12.076 0.0 0.0 0.0 8.50039 -14.7998 -1.97299 -49.2228 -1.15516 7.23734 31.2399 26.5122 -4.28936 33.5627 -0.0 -0.0 -0.0 0.0 -0.0 7.72799 32.9404 -15.6869 -28.2329 -0.107683 -4.28772 31.3265 -22.4279 4.19871 -19.9933 0.0 0.0 0.0 0.0 0.0 
1170.07209316 736.041 -1826.05418027 12.2351523697 26.9978818903 -3.27856980231 -4.80595 0.275788 0.664755 -4.80574 0.23293 0.680956 -4.80241 0.0244825 0.719275 -4.80311 0.137768 0.706383 -1.78482 8.21202 -3.33185 -1.55126 17.455 -2.48498 -0.0 0.0 -0.0 7.818 9.60111 14.8745 -25.7491 -7.75594 57.9769 0.870599 -23.3288 0.179732 -19.6374 -1.08898 2.25025 -1.50331 6.93364 -6.91229 -0.0 0.0 -0.0 11.5708 10.2714 -23.31 -13.3979 50.4208 -38.4889 1.00637 26.4969 -0.236946 -0.460687 0.0164596 -0.0565311 -4.18326 -25.0932 13.7881 0.0 0.0 0.0 13.2164 -17.4008 -2.67269 -47.8715 -1.04189 7.06283 31.2706 24.5353 -4.24102 34.1553 -0.0 -0.0 -0.0 0.0 -0.0 7.48338 37.233 -18.0447 -24.5556 -0.213817 -3.73344 31.2289 -25.4649 4.25988 -20.7308 0.0 0.0 0.0 0.0 0.0 
1145.82459408 737.125 -1836.72543359 11.9387424669 28.2348267972 -2.54011770177 -4.80797 0.260427 0.544305 -4.80784 0.225264 0.559773 -4.80525 0.0524168 0.601116 -4.80573 0.146692 0.585295 -1.58302 7.94403 -3.88931 -1.3263 17.4037 -3.14225 -0.0 0.0 -0.0 7.91512 10.3075 15.0068 -27.6461 -7.38447 58.6211 0.886312 -23.7038 0.186002 -19.1419 -1.05223 2.19851 -1.51817 7.25589 -6.86083 -0.0 0.0 -0.0 11.7203 9.79349 -23.6454 -12.4574 49.0227 -38.6022 1.10571 28.7102 -0.282983 -3.73482 0.146472 -0.454283 -4.36005 -22.1948 16.7457 0.0 0.0 0.0 14.5436 -18.8839 -1.82338 -48.9274 -1.13004 7.19941 29.9145 24.206 -4.07865 36.0439 -0.0 -0.0 -0.0 0.0 -0.0 6.28131 35.8686 -17.0474 -24.2361 -0.221352 -3.685 29.9242 -23.8291 4.07118 -21.2269 0.0 0.0 0.0 0.0 0.0 
1100.5879328 734.345 -1857.70702262 11.515942028 27.6576473372 -2.54789523127 -4.56956 0.44989 0.494961 -4.56952 0.417483 0.522585 -4.56537 0.249743 0.620494 -4.56574 0.344603 0.573267 0.521419 8.78533 -2.0405 0.793868 17.2829 -1.36886 -0.0 0.0 -0.0 8.22148 12.6345 15.3813 -31.9098 -8.76554 59.7861 0.791966 -21.4208 0.149795 -19.4745 -1.07684 2.23327 -0.979763 7.10869 -3.41226 -0.0 0.0 -0.0 11.8046 9.30196 -23.8325 -10.4341 46.756 -39.5783 1.22802 31.312 -0.344177 -10.5404 0.488308 -1.25413 -5.25786 -15.2978 27.4331 0.0 0.0 0.0 20.959 -23.2403 -2.33709 -45.241 -0.833407 6.71585 22.0459 27.4634 -3.18231 31.8603 -0.0 -0.0 -0.0 0.0 -0.0 2.41922 41.5572 -15.3722 -20.8358 -0.284767 -3.16714 30.3151 -18.2125 4.01036 -21.8246 0.0 0.0 0.0 0.0 0.0 
1091.88131743 734.345 -1851.37619855 11.6581828174 28.945909837 -2.84788866465 -4.56956 0.44989 0.494961 -4.56952 0.417483 0.522585 -4.56537 0.249743 0.620494 -4.56574 0.344603 0.573267 0.521419 8.78533 -2.0405 0.793868 17.2829 -1.36886 -0.0 0.0 -0.0 8.22148 12.6345 15.3813 -31.9098 -8.76554 59.7861 0.791966 -21.4208 0.149795 -19.4745 -1.07684 2.23327 -0.979763 7.10869 -3.41226 -0.0 0.0 -0.0 11.8046 9.30196 -23.8325 -10.4341 46.756 -39.5783 1.22802 31.312 -0.344177 -10.5404 0.488308 -1.25413 -5.25786 -15.2978 27.4331 0.0 0.0 0.0 20.959 -23.2403 -2.33709 -45.241 -0.833407 6.71585 22.0459 27.4634 -3.18231 31.8603 -0.0 -0.0 -0.0 0.0 -0.0 2.41922 41.5572 -15.3722 -20.8358 -0.284767 -3.16714 30.3151 -18.2125 4.01036 -21.8246 0.0 0.0 0.0 0.0 0.0 
1068.97220433 732.03 -1854.1624225 10.9675571543 29.1405124875 -2.36022152851 -4.42386 0.581512 0.61806 -4.42381 0.541006 0.653809 -4.41712 0.332394 0.780809 -4.41769 0.451533 0.718519 1.3846 8.9711 -2.48243 1.71772 17.9015 -1.96048 -0.0 0.0 -0.0 8.37505 11.7936 15.7218 -32.4332 -8.32498 61.0696 0.789371 -21.357 0.148849 -19.3973 -1.07111 2.22521 -0.828416 7.0169 -2.46695 -0.0 0.0 -0.0 11.8877 9.1642 -24.0179 -8.99927 45.7093 -40.2076 1.27614 32.2982 -0.369539 -12.7659 0.620466 -1.50633 -5.59183 -14.8957 30.1403 0.0 0.0 0.0 23.1378 -28.7345 -1.21062 -45.1637 -0.827518 6.7055 18.0968 27.1154 -2.64864 31.6076 -0.0 -0.0 -0.0 0.0 -0.0 1.85523 45.0513 -15.0917 -19.6188 -0.29998 -2.98103 30.1922 -14.9766 3.9555 -21.8286 0.0 0.0 0.0 0.0 0.0 
1054.69473862 729.584 -1862.8157173 10.1799021314 29.7704475491 -2.28332215308 -4.4979 0.611262 0.584819 -4.49789 0.572811 0.622529 -4.4912 0.37081 0.760362 -4.49168 0.486238 0.692261 1.00976 9.11629 -1.61479 1.29386 17.4755 -0.941122 -0.0 0.0 -0.0 8.35459 12.6262 15.6157 -33.1291 -8.71706 60.935 0.811069 -21.8892 0.156844 -19.6406 -1.08921 2.25058 -0.714177 6.82332 -1.80721 -0.0 0.0 -0.0 11.8948 9.21831 -24.0344 -7.96155 45.0981 -40.3403 1.35029 33.7766 -0.409966 -14.3727 0.721946 -1.68518 -5.76819 -13.362 32.6315 0.0 0.0 0.0 23.8147 -32.088 -2.05891 -44.194 -0.754917 6.57518 15.5381 27.0624 -2.29525 30.8247 -0.0 -0.0 -0.0 0.0 -0.0 0.531183 45.6983 -13.8987 -18.8748 -0.307331 -2.86711 30.5108 -14.9905 3.99027 -21.8257 0.0 0.0 0.0 0.0 0.0 
1035.45781676 722.883 -1874.50416245 10.4098708716 29.7708886527 -2.88850583867 -4.62136 0.64736 0.575878 -4.62138 0.609404 0.615903 -4.61438 0.406128 0.765353 -4.61482 0.521901 0.691612 1.9608 9.73181 -1.05916 2.28133 17.9997 -0.407872 -0.0 0.0 -0.0 8.29303 13.3975 15.4412 -33.4198 -9.26537 61.0951 0.814778 -21.9797 0.15823 -19.6706 -1.09145 2.2537 -0.557278 6.72735 -0.826446 -0.0 0.0 -0.0 11.8191 9.16806 -23.8638 -7.25024 44.596 -40.6608 1.37688 34.2948 -0.42485 -15.5893 0.802104 -1.81868 -5.92052 -12.548 34.4432 0.0 0.0 0.0 24.9093 -34.3846 -2.97349 -43.1291 -0.677747 6.43068 13.3678 26.6378 -1.98462 30.1017 -0.0 -0.0 -0.0 0.0 -0.0 -0.40551 48.528 -13.528 -18.4719 -0.310695 -2.80538 30.5339 -12.1844 3.96724 -21.4283 0.0 0.0 0.0 0.0 0.0 
1028.16348688 722.883 -1868.23934595 10.5218080025 30.8082948183 -3.11043075106 -4.62136 0.64736 0.575878 -4.62138 0.609404 0.615903 -4.61438 0.406128 0.765353 -4.61482 0.521901 0.691612 1.9608 9.73181 -1.05916 2.28133 17.9997 -0.407872 -0.0 0.0 -0.0 8.29303 13.3975 15.4412 -33.4198 -9.26537 61.0951 0.814778 -21.9797 0.15823 -19.6706 -1.09145 2.2537 -0.557278 6.72735 -0.826446 -0.0 0.0 -0.0 11.8191 9.16806 -23.8638 -7.25024 44.596 -40.6608 1.37688 34.2948 -0.42485 -15.5893 0.802104 -1.81868 -5.92052 -12.548 34.4432 0.0 0.0 0.0 24.9093 -34.3846 -2.97349 -43.1291 -0.677747 6.43068 13.3678 26.6378 -1.98462 30.1017 -0.0 -0.0 -0.0 0.0 -0.0 -0.40551 48.528 -13.528 -18.4719 -0.310695 -2.80538 30.5339 -12.1844 3.96724 -21.4283 0.0 0.0 0.0 0.0 0.0 
